<svg width="120" height="120" viewBox="0 0 120 120" fill="none" xmlns="http://www.w3.org/2000/svg">
  <rect x="18" y="24" width="58" height="48" rx="6" stroke="#0F172A" stroke-width="4"/>
  <line x1="18" y1="38" x2="76" y2="38" stroke="#0F172A" stroke-width="4"/>
  <circle cx="28" cy="31" r="2.5" fill="#0F172A"/>
  <circle cx="38" cy="31" r="2.5" fill="#0F172A"/>
  <circle cx="48" cy="31" r="2.5" fill="#0F172A"/>
  <path d="M30 51L39 58L30 65" stroke="#0F172A" stroke-width="4" stroke-linecap="round" stroke-linejoin="round"/>
  <line x1="45" y1="65" x2="58" y2="65" stroke="#22C55E" stroke-width="4" stroke-linecap="round"/>
  <path d="M72 18H95L106 29V72H72V18Z" stroke="#0F172A" stroke-width="4" stroke-linejoin="round"/>
  <path d="M95 18V30H106" stroke="#0F172A" stroke-width="4" stroke-linejoin="round"/>
  <line x1="80" y1="42" x2="98" y2="42" stroke="#EF4444" stroke-width="3" stroke-linecap="round"/>
  <line x1="80" y1="52" x2="98" y2="52" stroke="#94A3B8" stroke-width="3" stroke-linecap="round"/>
  <line x1="80" y1="62" x2="93" y2="62" stroke="#94A3B8" stroke-width="3" stroke-linecap="round"/>
  <circle cx="64" cy="70" r="18" stroke="#0F172A" stroke-width="4"/>
  <line x1="77" y1="83" x2="92" y2="98" stroke="#0F172A" stroke-width="6" stroke-linecap="round"/>
  <path d="M52 70H58L61 62L67 78L71 70H76" stroke="#EF4444" stroke-width="4" stroke-linecap="round" stroke-linejoin="round"/>
  <circle cx="35" cy="91" r="14" stroke="#EF4444" stroke-width="4"/>
  <line x1="26" y1="100" x2="44" y2="82" stroke="#EF4444" stroke-width="4" stroke-linecap="round"/>
  <rect x="76" y="83" width="24" height="25" rx="3" stroke="#0F172A" stroke-width="3"/>
  <rect x="82" y="96" width="3" height="6" fill="#22C55E"/>
  <rect x="88" y="91" width="3" height="11" fill="#22C55E"/>
  <rect x="94" y="87" width="3" height="15" fill="#22C55E"/>
</svg>
