<svg width="120" height="120" viewBox="0 0 120 120" fill="none" xmlns="http://www.w3.org/2000/svg">
  <rect x="18" y="20" width="84" height="72" rx="8" stroke="#0F172A" stroke-width="4"/>
  <line x1="18" y1="36" x2="102" y2="36" stroke="#0F172A" stroke-width="4"/>
  <circle cx="29" cy="28" r="2.5" fill="#0F172A"/>
  <circle cx="39" cy="28" r="2.5" fill="#0F172A"/>
  <circle cx="49" cy="28" r="2.5" fill="#0F172A"/>
  <rect x="28" y="46" width="24" height="16" rx="3" stroke="#0F172A" stroke-width="3"/>
  <rect x="60" y="46" width="30" height="16" rx="3" stroke="#0F172A" stroke-width="3"/>
  <rect x="28" y="70" width="30" height="12" rx="3" stroke="#0F172A" stroke-width="3"/>
  <rect x="66" y="70" width="24" height="12" rx="3" stroke="#0F172A" stroke-width="3"/>
  <path d="M34 54L39 58L47 50" stroke="#22C55E" stroke-width="4" stroke-linecap="round" stroke-linejoin="round"/>
  <line x1="66" y1="52" x2="84" y2="52" stroke="#94A3B8" stroke-width="3" stroke-linecap="round"/>
  <line x1="66" y1="58" x2="78" y2="58" stroke="#94A3B8" stroke-width="3" stroke-linecap="round"/>
  <path d="M72 78H84C87 78 89 76 89 73V70" stroke="#EF4444" stroke-width="3" stroke-linecap="round"/>
  <circle cx="72" cy="76" r="2" fill="#EF4444"/>
  <circle cx="78" cy="76" r="2" fill="#EF4444"/>
  <circle cx="84" cy="76" r="2" fill="#EF4444"/>
  <path d="M42 96H76" stroke="#0F172A" stroke-width="4" stroke-linecap="round"/>
  <path d="M48 102H72" stroke="#0F172A" stroke-width="4" stroke-linecap="round"/>
  <circle cx="60" cy="96" r="8" fill="white" stroke="#0F172A" stroke-width="4"/>
  <path d="M60 88V82" stroke="#0F172A" stroke-width="3" stroke-linecap="round"/>
</svg>
